<?xml version="1.0" encoding="UTF-8" standalone="no"?>
<svg
   xmlns:dc="http://purl.org/dc/elements/1.1/"
   xmlns:cc="http://creativecommons.org/ns#"
   xmlns:rdf="http://www.w3.org/1999/02/22-rdf-syntax-ns#"
   xmlns:svg="http://www.w3.org/2000/svg"
   xmlns="http://www.w3.org/2000/svg"
   viewBox="0 0 499.20267 495.02533"
   height="495.02533"
   width="499.20267"
   xml:space="preserve"
   id="svg2"
   version="1.1"><metadata
     id="metadata8"><rdf:RDF><cc:Work
         rdf:about=""><dc:format>image/svg+xml</dc:format><dc:type
           rdf:resource="http://purl.org/dc/dcmitype/StillImage" /></cc:Work></rdf:RDF></metadata><defs
     id="defs6"><clipPath
       id="clipPath14"
       clipPathUnits="userSpaceOnUse"><path
         id="path12"
         d="M 0,0 H 595.28 V 841.89 H 0 Z" /></clipPath></defs><g
     clip-path="url(#clipPath14)"
     transform="matrix(1.3333333,0,0,-1.3333333,-77.978667,1038.972)"
     id="g10"><g
       transform="translate(72,769.89)"
       id="g16"><text
         id="text20"
         style="font-variant:normal;font-weight:bold;font-size:12.00500011px;font-family:TimesNewRomanPS;-inkscape-font-specification:TimesNewRomanPS-BoldMT;writing-mode:lr-tb;fill:#000000;fill-opacity:1;fill-rule:nonzero;stroke:none"
         transform="matrix(1,0,0,-1,1.867,-10.821)"><tspan
           id="tspan18"
           y="0"
           x="0 4.6699448 11.344725 18.019505 24.694284">Input</tspan></text>
<text
         id="text24"
         style="font-variant:normal;font-weight:normal;font-size:12.00500011px;font-family:SimHei;-inkscape-font-specification:SimHei;writing-mode:lr-tb;fill:#000000;fill-opacity:1;fill-rule:nonzero;stroke:none"
         transform="matrix(1,0,0,-1,30.567,-10.821)"><tspan
           id="tspan22"
           y="0"
           x="0">：</tspan></text>
<text
         id="text28"
         style="font-style:italic;font-variant:normal;font-weight:normal;font-size:12.00500011px;font-family:CMMI12;-inkscape-font-specification:CMMI12;writing-mode:lr-tb;fill:#000000;fill-opacity:1;fill-rule:nonzero;stroke:none"
         transform="matrix(1,0,0,-1,48.574,-10.821)"><tspan
           id="tspan26"
           y="0"
           x="0">V</tspan></text>
<text
         id="text32"
         style="font-variant:normal;font-weight:normal;font-size:12.00500011px;font-family:SimSun;-inkscape-font-specification:SimSun;writing-mode:lr-tb;fill:#000000;fill-opacity:1;fill-rule:nonzero;stroke:none"
         transform="matrix(1,0,0,-1,58.039,-10.821)"><tspan
           id="tspan30"
           y="0"
           x="0 12.005 24.01 36.014999 48.02 60.025002 72.029999 84.035004 96.040001 108.045 120.05">：所有主索节点坐标集合</tspan></text>
<text
         id="text36"
         style="font-style:italic;font-variant:normal;font-weight:normal;font-size:12.00500011px;font-family:CMMI12;-inkscape-font-specification:CMMI12;writing-mode:lr-tb;fill:#000000;fill-opacity:1;fill-rule:nonzero;stroke:none"
         transform="matrix(1,0,0,-1,19.275,-30.688)"><tspan
           id="tspan34"
           y="0"
           x="0">R</tspan></text>
<text
         id="text40"
         style="font-variant:normal;font-weight:normal;font-size:12.00500011px;font-family:SimSun;-inkscape-font-specification:SimSun;writing-mode:lr-tb;fill:#000000;fill-opacity:1;fill-rule:nonzero;stroke:none"
         transform="matrix(1,0,0,-1,28.321,-30.688)"><tspan
           id="tspan38"
           y="0"
           x="0 12.005 24.01 36.014999 48.02">：旋转矩阵</tspan></text>
<text
         id="text44"
         style="font-style:italic;font-variant:normal;font-weight:normal;font-size:12.00500011px;font-family:CMMI12;-inkscape-font-specification:CMMI12;writing-mode:lr-tb;fill:#000000;fill-opacity:1;fill-rule:nonzero;stroke:none"
         transform="matrix(1,0,0,-1,19.275,-50.554)"><tspan
           id="tspan42"
           y="0"
           x="0 4.0096698 11.02059 17.119129 22.557396">index</tspan></text>
<text
         id="text48"
         style="font-variant:normal;font-weight:normal;font-size:12.00500011px;font-family:TimesNewRomanPSMT;-inkscape-font-specification:TimesNewRomanPSMT;writing-mode:lr-tb;fill:#000000;fill-opacity:1;fill-rule:nonzero;stroke:none"
         transform="matrix(1,0,0,-1,48.537,-50.554)"><tspan
           id="tspan46"
           y="0"
           x="0">_</tspan></text>
<text
         id="text52"
         style="font-style:italic;font-variant:normal;font-weight:normal;font-size:12.00500011px;font-family:CMMI12;-inkscape-font-specification:CMMI12;writing-mode:lr-tb;fill:#000000;fill-opacity:1;fill-rule:nonzero;stroke:none"
         transform="matrix(1,0,0,-1,54.54,-50.554)"><tspan
           id="tspan50"
           y="0"
           x="0 4.0096698">in</tspan></text>
<text
         id="text56"
         style="font-variant:normal;font-weight:normal;font-size:12.00500011px;font-family:SimSun;-inkscape-font-specification:SimSun;writing-mode:lr-tb;fill:#000000;fill-opacity:1;fill-rule:nonzero;stroke:none"
         transform="matrix(1,0,0,-1,65.567,-50.554)"><tspan
           id="tspan54"
           y="0"
           x="0 12.005 24.01 36.014999 48.02 60.025002 72.029999 84.035004 96.040001 108.045 120.05 132.05499 144.06 156.065 168.07001">：工作抛物面内主索节点索引集合</tspan></text>
<text
         id="text60"
         style="font-style:italic;font-variant:normal;font-weight:normal;font-size:12.00500011px;font-family:CMMI12;-inkscape-font-specification:CMMI12;writing-mode:lr-tb;fill:#000000;fill-opacity:1;fill-rule:nonzero;stroke:none"
         transform="matrix(1,0,0,-1,19.275,-70.421)"><tspan
           id="tspan58"
           y="0"
           x="0">l</tspan></text>
<text
         id="text64"
         style="font-variant:normal;font-weight:normal;font-size:12.00500011px;font-family:TimesNewRomanPSMT;-inkscape-font-specification:TimesNewRomanPSMT;writing-mode:lr-tb;fill:#000000;fill-opacity:1;fill-rule:nonzero;stroke:none"
         transform="matrix(1,0,0,-1,23.04,-70.421)"><tspan
           id="tspan62"
           y="0"
           x="0">_</tspan></text>
<text
         id="text68"
         style="font-style:italic;font-variant:normal;font-weight:normal;font-size:12.00500011px;font-family:CMMI12;-inkscape-font-specification:CMMI12;writing-mode:lr-tb;fill:#000000;fill-opacity:1;fill-rule:nonzero;stroke:none"
         transform="matrix(1,0,0,-1,29.043,-70.421)"><tspan
           id="tspan66"
           y="0"
           x="0">r</tspan></text>
<text
         id="text72"
         style="font-variant:normal;font-weight:normal;font-size:12.00500011px;font-family:SimSun;-inkscape-font-specification:SimSun;writing-mode:lr-tb;fill:#000000;fill-opacity:1;fill-rule:nonzero;stroke:none"
         transform="matrix(1,0,0,-1,34.666,-70.421)"><tspan
           id="tspan70"
           y="0"
           x="0 12.005 24.01 36.014999 48.02 60.025002 72.029999">：径向向量矩阵</tspan></text>
<text
         id="text76"
         style="font-variant:normal;font-weight:bold;font-size:12.00500011px;font-family:TimesNewRomanPS;-inkscape-font-specification:TimesNewRomanPS-BoldMT;writing-mode:lr-tb;fill:#000000;fill-opacity:1;fill-rule:nonzero;stroke:none"
         transform="matrix(1,0,0,-1,1.867,-90.288)"><tspan
           id="tspan74"
           y="0"
           x="0 9.3398895 16.014669 20.012335 26.687115 33.361897">Output</tspan></text>
<text
         id="text80"
         style="font-variant:normal;font-weight:normal;font-size:12.00500011px;font-family:SimHei;-inkscape-font-specification:SimHei;writing-mode:lr-tb;fill:#000000;fill-opacity:1;fill-rule:nonzero;stroke:none"
         transform="matrix(1,0,0,-1,39.231,-90.288)"><tspan
           id="tspan78"
           y="0"
           x="0">：</tspan></text>
<text
         id="text84"
         style="font-style:italic;font-variant:normal;font-weight:normal;font-size:12.00500011px;font-family:CMMI12;-inkscape-font-specification:CMMI12;writing-mode:lr-tb;fill:#000000;fill-opacity:1;fill-rule:nonzero;stroke:none"
         transform="matrix(1,0,0,-1,57.238,-90.288)"><tspan
           id="tspan82"
           y="0"
           x="0 5.61834 11.056605 16.59091 23.277695 27.035259">result</tspan></text>
<text
         id="text88"
         style="font-variant:normal;font-weight:normal;font-size:12.00500011px;font-family:SimSun;-inkscape-font-specification:SimSun;writing-mode:lr-tb;fill:#000000;fill-opacity:1;fill-rule:nonzero;stroke:none"
         transform="matrix(1,0,0,-1,88.547,-90.288)"><tspan
           id="tspan86"
           y="0"
           x="0 12.005 24.01 36.014999 48.02">：结果矩阵</tspan></text>
<text
         id="text92"
         style="font-variant:normal;font-weight:normal;font-size:12.00500011px;font-family:TimesNewRomanPSMT;-inkscape-font-specification:TimesNewRomanPSMT;writing-mode:lr-tb;fill:#000000;fill-opacity:1;fill-rule:nonzero;stroke:none"
         transform="matrix(1,0,0,-1,19.275,-110.154)"><tspan
           id="tspan90"
           y="0"
           x="0 3.3373899">//</tspan></text>
<text
         id="text96"
         style="font-variant:normal;font-weight:normal;font-size:12.00500011px;font-family:SimSun;-inkscape-font-specification:SimSun;writing-mode:lr-tb;fill:#000000;fill-opacity:1;fill-rule:nonzero;stroke:none"
         transform="matrix(1,0,0,-1,25.945,-110.154)"><tspan
           id="tspan94"
           y="0"
           x="0 12.005 24.01 36.014999 48.02 60.025002 72.029999 84.035004 96.040001">计算新坐标系下的点</tspan></text>
<text
         id="text100"
         style="font-variant:normal;font-weight:normal;font-size:7.5px;font-family:TimesNewRomanPSMT;-inkscape-font-specification:TimesNewRomanPSMT;writing-mode:lr-tb;fill:#000000;fill-opacity:1;fill-rule:nonzero;stroke:none"
         transform="matrix(1,0,0,-1,7.438,-130.021)"><tspan
           id="tspan98"
           y="0"
           x="0 3.75">1:</tspan></text>
<text
         id="text104"
         style="font-variant:normal;font-weight:normal;font-size:12.00500011px;font-family:SimSun;-inkscape-font-specification:SimSun;writing-mode:lr-tb;fill:#000000;fill-opacity:1;fill-rule:nonzero;stroke:none"
         transform="matrix(1,0,0,-1,19.275,-130.021)"><tspan
           id="tspan102"
           y="0"
           x="0 12.005 24.01 36.014999 48.02 60.025002 72.029999 84.035004 96.040001">新坐标系下的点矩阵</tspan></text>
<text
         id="text108"
         style="font-style:italic;font-variant:normal;font-weight:normal;font-size:12.00500011px;font-family:CMMI12;-inkscape-font-specification:CMMI12;writing-mode:lr-tb;fill:#000000;fill-opacity:1;fill-rule:nonzero;stroke:none"
         transform="matrix(1,0,0,-1,130.321,-130.021)"><tspan
           id="tspan106"
           y="0"
           x="0 6.0985398 12.26911 16.506874">data</tspan></text>
<text
         id="text112"
         style="font-variant:normal;font-weight:normal;font-size:12.00500011px;font-family:CMR12;-inkscape-font-specification:CMR12;writing-mode:lr-tb;fill:#000000;fill-opacity:1;fill-rule:nonzero;stroke:none"
         transform="matrix(1,0,0,-1,156.349,-130.021)"><tspan
           id="tspan110"
           y="0"
           x="0">=</tspan></text>
<text
         id="text116"
         style="font-style:italic;font-variant:normal;font-weight:normal;font-size:12.00500011px;font-family:CMMI12;-inkscape-font-specification:CMMI12;writing-mode:lr-tb;fill:#000000;fill-opacity:1;fill-rule:nonzero;stroke:none"
         transform="matrix(1,0,0,-1,168.827,-130.021)"><tspan
           id="tspan114"
           y="0"
           x="0">R</tspan></text>
<text
         id="text120"
         style="font-style:italic;font-variant:normal;font-weight:normal;font-size:12.00500011px;font-family:CMSY10;-inkscape-font-specification:CMSY10;writing-mode:lr-tb;fill:#000000;fill-opacity:1;fill-rule:nonzero;stroke:none"
         transform="matrix(1,0,0,-1,180.54,-130.021)"><tspan
           id="tspan118"
           y="0"
           x="0">·</tspan></text>
<text
         id="text124"
         style="font-style:italic;font-variant:normal;font-weight:normal;font-size:12.00500011px;font-family:CMMI12;-inkscape-font-specification:CMMI12;writing-mode:lr-tb;fill:#000000;fill-opacity:1;fill-rule:nonzero;stroke:none"
         transform="matrix(1,0,0,-1,186.543,-130.021)"><tspan
           id="tspan122"
           y="0"
           x="0 6.0985398 12.26911 16.506874">data</tspan></text>
<text
         id="text128"
         style="font-variant:normal;font-weight:normal;font-size:12.00500011px;font-family:CMR12;-inkscape-font-specification:CMR12;writing-mode:lr-tb;fill:#000000;fill-opacity:1;fill-rule:nonzero;stroke:none"
         transform="matrix(1,0,0,-1,209.237,-130.021)"><tspan
           id="tspan126"
           y="0"
           x="0">0</tspan></text>
<text
         id="text132"
         style="font-variant:normal;font-weight:normal;font-size:7.5px;font-family:TimesNewRomanPSMT;-inkscape-font-specification:TimesNewRomanPSMT;writing-mode:lr-tb;fill:#000000;fill-opacity:1;fill-rule:nonzero;stroke:none"
         transform="matrix(1,0,0,-1,7.438,-149.887)"><tspan
           id="tspan130"
           y="0"
           x="0 3.75">2:</tspan></text>
<text
         id="text136"
         style="font-variant:normal;font-weight:normal;font-size:12.00500011px;font-family:SimSun;-inkscape-font-specification:SimSun;writing-mode:lr-tb;fill:#000000;fill-opacity:1;fill-rule:nonzero;stroke:none"
         transform="matrix(1,0,0,-1,19.275,-149.887)"><tspan
           id="tspan134"
           y="0"
           x="0 12.005 24.01 36.014999 48.02 60.025002 72.029999 84.035004 96.040001 108.045 120.05 132.05499 144.06 156.065">新坐标系下的径向方向向量矩阵</tspan></text>
<text
         id="text140"
         style="font-style:italic;font-variant:normal;font-weight:normal;font-size:12.00500011px;font-family:CMMI12;-inkscape-font-specification:CMMI12;writing-mode:lr-tb;fill:#000000;fill-opacity:1;fill-rule:nonzero;stroke:none"
         transform="matrix(1,0,0,-1,190.346,-149.887)"><tspan
           id="tspan138"
           y="0"
           x="0 6.0985398 12.26911 16.506874">data</tspan></text>
<text
         id="text144"
         style="font-variant:normal;font-weight:normal;font-size:12.00500011px;font-family:TimesNewRomanPSMT;-inkscape-font-specification:TimesNewRomanPSMT;writing-mode:lr-tb;fill:#000000;fill-opacity:1;fill-rule:nonzero;stroke:none"
         transform="matrix(1,0,0,-1,213.04,-149.887)"><tspan
           id="tspan142"
           y="0"
           x="0">_</tspan></text>
<text
         id="text148"
         style="font-style:italic;font-variant:normal;font-weight:normal;font-size:12.00500011px;font-family:CMMI12;-inkscape-font-specification:CMMI12;writing-mode:lr-tb;fill:#000000;fill-opacity:1;fill-rule:nonzero;stroke:none"
         transform="matrix(1,0,0,-1,219.042,-149.887)"><tspan
           id="tspan146"
           y="0"
           x="0">r</tspan></text>
<text
         id="text152"
         style="font-variant:normal;font-weight:normal;font-size:12.00500011px;font-family:CMR12;-inkscape-font-specification:CMR12;writing-mode:lr-tb;fill:#000000;fill-opacity:1;fill-rule:nonzero;stroke:none"
         transform="matrix(1,0,0,-1,228.001,-149.887)"><tspan
           id="tspan150"
           y="0"
           x="0">=</tspan></text>
<text
         id="text156"
         style="font-style:italic;font-variant:normal;font-weight:normal;font-size:12.00500011px;font-family:CMMI12;-inkscape-font-specification:CMMI12;writing-mode:lr-tb;fill:#000000;fill-opacity:1;fill-rule:nonzero;stroke:none"
         transform="matrix(1,0,0,-1,240.478,-149.887)"><tspan
           id="tspan154"
           y="0"
           x="0">R</tspan></text>
<text
         id="text160"
         style="font-style:italic;font-variant:normal;font-weight:normal;font-size:12.00500011px;font-family:CMSY10;-inkscape-font-specification:CMSY10;writing-mode:lr-tb;fill:#000000;fill-opacity:1;fill-rule:nonzero;stroke:none"
         transform="matrix(1,0,0,-1,252.192,-149.887)"><tspan
           id="tspan158"
           y="0"
           x="0">·</tspan></text>
<text
         id="text164"
         style="font-style:italic;font-variant:normal;font-weight:normal;font-size:12.00500011px;font-family:CMMI12;-inkscape-font-specification:CMMI12;writing-mode:lr-tb;fill:#000000;fill-opacity:1;fill-rule:nonzero;stroke:none"
         transform="matrix(1,0,0,-1,258.194,-149.887)"><tspan
           id="tspan162"
           y="0"
           x="0">l</tspan></text>
<text
         id="text168"
         style="font-variant:normal;font-weight:normal;font-size:12.00500011px;font-family:TimesNewRomanPSMT;-inkscape-font-specification:TimesNewRomanPSMT;writing-mode:lr-tb;fill:#000000;fill-opacity:1;fill-rule:nonzero;stroke:none"
         transform="matrix(1,0,0,-1,261.959,-149.887)"><tspan
           id="tspan166"
           y="0"
           x="0">_</tspan></text>
<text
         id="text172"
         style="font-style:italic;font-variant:normal;font-weight:normal;font-size:12.00500011px;font-family:CMMI12;-inkscape-font-specification:CMMI12;writing-mode:lr-tb;fill:#000000;fill-opacity:1;fill-rule:nonzero;stroke:none"
         transform="matrix(1,0,0,-1,267.962,-149.887)"><tspan
           id="tspan170"
           y="0"
           x="0">r</tspan></text>
<text
         id="text176"
         style="font-variant:normal;font-weight:normal;font-size:12.00500011px;font-family:TimesNewRomanPSMT;-inkscape-font-specification:TimesNewRomanPSMT;writing-mode:lr-tb;fill:#000000;fill-opacity:1;fill-rule:nonzero;stroke:none"
         transform="matrix(1,0,0,-1,19.275,-169.754)"><tspan
           id="tspan174"
           y="0"
           x="0 3.3373899">//</tspan></text>
<text
         id="text180"
         style="font-variant:normal;font-weight:normal;font-size:12.00500011px;font-family:SimSun;-inkscape-font-specification:SimSun;writing-mode:lr-tb;fill:#000000;fill-opacity:1;fill-rule:nonzero;stroke:none"
         transform="matrix(1,0,0,-1,25.945,-169.754)"><tspan
           id="tspan178"
           y="0"
           x="0 12.005 24.01 36.014999 48.02 60.025002">剔除非工作点</tspan></text>
<text
         id="text184"
         style="font-variant:normal;font-weight:normal;font-size:7.5px;font-family:TimesNewRomanPSMT;-inkscape-font-specification:TimesNewRomanPSMT;writing-mode:lr-tb;fill:#000000;fill-opacity:1;fill-rule:nonzero;stroke:none"
         transform="matrix(1,0,0,-1,7.438,-189.62)"><tspan
           id="tspan182"
           y="0"
           x="0 3.75">3:</tspan></text>
<text
         id="text188"
         style="font-variant:normal;font-weight:normal;font-size:12.00500011px;font-family:SimSun;-inkscape-font-specification:SimSun;writing-mode:lr-tb;fill:#000000;fill-opacity:1;fill-rule:nonzero;stroke:none"
         transform="matrix(1,0,0,-1,19.275,-189.62)"><tspan
           id="tspan186"
           y="0"
           x="0 12.005 24.01 36.014999 48.02 60.025002 72.029999 84.035004 96.040001 108.045 120.05 132.05499 144.06 156.065 168.07001 180.075 192.08 204.08501">利用工作面内点索引剔除非工作区内的点</tspan></text>
<text
         id="text192"
         style="font-variant:normal;font-weight:normal;font-size:12.00500011px;font-family:TimesNewRomanPSMT;-inkscape-font-specification:TimesNewRomanPSMT;writing-mode:lr-tb;fill:#000000;fill-opacity:1;fill-rule:nonzero;stroke:none"
         transform="matrix(1,0,0,-1,19.275,-209.487)"><tspan
           id="tspan190"
           y="0"
           x="0 3.3373899">//</tspan></text>
<text
         id="text196"
         style="font-variant:normal;font-weight:normal;font-size:12.00500011px;font-family:SimSun;-inkscape-font-specification:SimSun;writing-mode:lr-tb;fill:#000000;fill-opacity:1;fill-rule:nonzero;stroke:none"
         transform="matrix(1,0,0,-1,25.945,-209.487)"><tspan
           id="tspan194"
           y="0"
           x="0 12.005 24.01 36.014999 48.02 60.025002 72.029999 84.035004 96.040001 108.045 120.05 132.05499 144.06 156.065 168.07001 180.075">计算变换后工作点坐标及径向伸缩量</tspan></text>
<text
         id="text200"
         style="font-variant:normal;font-weight:normal;font-size:7.5px;font-family:TimesNewRomanPSMT;-inkscape-font-specification:TimesNewRomanPSMT;writing-mode:lr-tb;fill:#000000;fill-opacity:1;fill-rule:nonzero;stroke:none"
         transform="matrix(1,0,0,-1,7.438,-229.353)"><tspan
           id="tspan198"
           y="0"
           x="0 3.75">4:</tspan></text>
<text
         id="text204"
         style="font-variant:normal;font-weight:bold;font-size:12.00500011px;font-family:TimesNewRomanPS;-inkscape-font-specification:TimesNewRomanPS-BoldMT;writing-mode:lr-tb;fill:#000000;fill-opacity:1;fill-rule:nonzero;stroke:none"
         transform="matrix(1,0,0,-1,19.275,-229.353)"><tspan
           id="tspan202"
           y="0"
           x="0 3.9976649 10.000165">for</tspan></text>
<text
         id="text208"
         style="font-variant:normal;font-weight:normal;font-size:12.00500011px;font-family:TimesNewRomanPSMT;-inkscape-font-specification:TimesNewRomanPSMT;writing-mode:lr-tb;fill:#000000;fill-opacity:1;fill-rule:nonzero;stroke:none"
         transform="matrix(1,0,0,-1,37.604,-229.353)"><tspan
           id="tspan206"
           y="0"
           x="0 3.3373899 10.10821 14.105875 20.108376 23.109625 32.113377 35.450764 44.454514 50.457016 53.458263">t=-0.6to0.6</tspan></text>
<text
         id="text212"
         style="font-variant:normal;font-weight:bold;font-size:12.00500011px;font-family:TimesNewRomanPS;-inkscape-font-specification:TimesNewRomanPS-BoldMT;writing-mode:lr-tb;fill:#000000;fill-opacity:1;fill-rule:nonzero;stroke:none"
         transform="matrix(1,0,0,-1,100.062,-229.353)"><tspan
           id="tspan210"
           y="0"
           x="0 6.6747799">do</tspan></text>
<text
         id="text216"
         style="font-variant:normal;font-weight:normal;font-size:7.5px;font-family:TimesNewRomanPSMT;-inkscape-font-specification:TimesNewRomanPSMT;writing-mode:lr-tb;fill:#000000;fill-opacity:1;fill-rule:nonzero;stroke:none"
         transform="matrix(1,0,0,-1,7.438,-249.22)"><tspan
           id="tspan214"
           y="0"
           x="0 3.75">5:</tspan></text>
<text
         id="text220"
         style="font-style:italic;font-variant:normal;font-weight:normal;font-size:12.00500011px;font-family:CMMI12;-inkscape-font-specification:CMMI12;writing-mode:lr-tb;fill:#000000;fill-opacity:1;fill-rule:nonzero;stroke:none"
         transform="matrix(1,0,0,-1,29.775,-249.22)"><tspan
           id="tspan218"
           y="0"
           x="0 6.0985398 12.26911 16.506874">data</tspan></text>
<text
         id="text224"
         style="font-variant:normal;font-weight:normal;font-size:12.00500011px;font-family:TimesNewRomanPSMT;-inkscape-font-specification:TimesNewRomanPSMT;writing-mode:lr-tb;fill:#000000;fill-opacity:1;fill-rule:nonzero;stroke:none"
         transform="matrix(1,0,0,-1,52.468,-249.22)"><tspan
           id="tspan222"
           y="0"
           x="0">_</tspan></text>
<text
         id="text228"
         style="font-style:italic;font-variant:normal;font-weight:normal;font-size:12.00500011px;font-family:CMMI12;-inkscape-font-specification:CMMI12;writing-mode:lr-tb;fill:#000000;fill-opacity:1;fill-rule:nonzero;stroke:none"
         transform="matrix(1,0,0,-1,58.471,-249.22)"><tspan
           id="tspan226"
           y="0"
           x="0 7.01092 12.449185">new</tspan></text>
<text
         id="text232"
         style="font-variant:normal;font-weight:normal;font-size:12.00500011px;font-family:CMR12;-inkscape-font-specification:CMR12;writing-mode:lr-tb;fill:#000000;fill-opacity:1;fill-rule:nonzero;stroke:none"
         transform="matrix(1,0,0,-1,82.996,-249.22)"><tspan
           id="tspan230"
           y="0"
           x="0">=</tspan></text>
<text
         id="text236"
         style="font-style:italic;font-variant:normal;font-weight:normal;font-size:12.00500011px;font-family:CMMI12;-inkscape-font-specification:CMMI12;writing-mode:lr-tb;fill:#000000;fill-opacity:1;fill-rule:nonzero;stroke:none"
         transform="matrix(1,0,0,-1,95.473,-249.22)"><tspan
           id="tspan234"
           y="0"
           x="0 6.0985398 12.26911 16.506874">data</tspan></text>
<text
         id="text240"
         style="font-variant:normal;font-weight:normal;font-size:12.00500011px;font-family:CMR12;-inkscape-font-specification:CMR12;writing-mode:lr-tb;fill:#000000;fill-opacity:1;fill-rule:nonzero;stroke:none"
         transform="matrix(1,0,0,-1,120.835,-249.22)"><tspan
           id="tspan238"
           y="0"
           x="0">+</tspan></text>
<text
         id="text244"
         style="font-style:italic;font-variant:normal;font-weight:normal;font-size:12.00500011px;font-family:CMMI12;-inkscape-font-specification:CMMI12;writing-mode:lr-tb;fill:#000000;fill-opacity:1;fill-rule:nonzero;stroke:none"
         transform="matrix(1,0,0,-1,132.645,-249.22)"><tspan
           id="tspan242"
           y="0"
           x="0 6.0985398 12.26911 16.506874">data</tspan></text>
<text
         id="text248"
         style="font-variant:normal;font-weight:normal;font-size:12.00500011px;font-family:TimesNewRomanPSMT;-inkscape-font-specification:TimesNewRomanPSMT;writing-mode:lr-tb;fill:#000000;fill-opacity:1;fill-rule:nonzero;stroke:none"
         transform="matrix(1,0,0,-1,155.339,-249.22)"><tspan
           id="tspan246"
           y="0"
           x="0">_</tspan></text>
<text
         id="text252"
         style="font-style:italic;font-variant:normal;font-weight:normal;font-size:12.00500011px;font-family:CMMI12;-inkscape-font-specification:CMMI12;writing-mode:lr-tb;fill:#000000;fill-opacity:1;fill-rule:nonzero;stroke:none"
         transform="matrix(1,0,0,-1,161.342,-249.22)"><tspan
           id="tspan250"
           y="0"
           x="0">r</tspan></text>
<text
         id="text256"
         style="font-style:italic;font-variant:normal;font-weight:normal;font-size:12.00500011px;font-family:CMSY10;-inkscape-font-specification:CMSY10;writing-mode:lr-tb;fill:#000000;fill-opacity:1;fill-rule:nonzero;stroke:none"
         transform="matrix(1,0,0,-1,169.633,-249.22)"><tspan
           id="tspan254"
           y="0"
           x="0">·</tspan></text>
<text
         id="text260"
         style="font-style:italic;font-variant:normal;font-weight:normal;font-size:12.00500011px;font-family:CMMI12;-inkscape-font-specification:CMMI12;writing-mode:lr-tb;fill:#000000;fill-opacity:1;fill-rule:nonzero;stroke:none"
         transform="matrix(1,0,0,-1,175.636,-249.22)"><tspan
           id="tspan258"
           y="0"
           x="0">t</tspan></text>
<text
         id="text264"
         style="font-style:italic;font-variant:normal;font-weight:normal;font-size:12.00500011px;font-family:CMSY10;-inkscape-font-specification:CMSY10;writing-mode:lr-tb;fill:#000000;fill-opacity:1;fill-rule:nonzero;stroke:none"
         transform="matrix(1,0,0,-1,183.215,-249.22)"><tspan
           id="tspan262"
           y="0"
           x="0">→</tspan></text>
<text
         id="text268"
         style="font-variant:normal;font-weight:normal;font-size:12.00500011px;font-family:SimSun;-inkscape-font-specification:SimSun;writing-mode:lr-tb;fill:#000000;fill-opacity:1;fill-rule:nonzero;stroke:none"
         transform="matrix(1,0,0,-1,198.222,-249.22)"><tspan
           id="tspan266"
           y="0"
           x="0 12.005 24.01 36.014999 48.02 60.025002 72.029999 84.035004 96.040001 108.045 120.05 132.05499">各工作点径向移动后的坐标</tspan></text>
<text
         id="text272"
         style="font-variant:normal;font-weight:normal;font-size:7.5px;font-family:TimesNewRomanPSMT;-inkscape-font-specification:TimesNewRomanPSMT;writing-mode:lr-tb;fill:#000000;fill-opacity:1;fill-rule:nonzero;stroke:none"
         transform="matrix(1,0,0,-1,7.438,-269.087)"><tspan
           id="tspan270"
           y="0"
           x="0 3.75">6:</tspan></text>
<text
         id="text276"
         style="font-variant:normal;font-weight:bold;font-size:12.00500011px;font-family:TimesNewRomanPS;-inkscape-font-specification:TimesNewRomanPS-BoldMT;writing-mode:lr-tb;fill:#000000;fill-opacity:1;fill-rule:nonzero;stroke:none"
         transform="matrix(1,0,0,-1,29.775,-269.087)"><tspan
           id="tspan274"
           y="0"
           x="0 3.3373899">if</tspan></text>
<text
         id="text280"
         style="font-variant:normal;font-weight:normal;font-size:12.00500011px;font-family:SimSun;-inkscape-font-specification:SimSun;writing-mode:lr-tb;fill:#000000;fill-opacity:1;fill-rule:nonzero;stroke:none"
         transform="matrix(1,0,0,-1,41,-269.087)"><tspan
           id="tspan278"
           y="0"
           x="0 12.005 24.01 36.014999 48.02 60.025002 72.029999 84.035004 96.040001 108.045 120.05 132.05499 144.06 156.065 168.07001 180.075">移动后的工作点近似在理想抛物面上</tspan></text>
<text
         id="text284"
         style="font-variant:normal;font-weight:bold;font-size:12.00500011px;font-family:TimesNewRomanPS;-inkscape-font-specification:TimesNewRomanPS-BoldMT;writing-mode:lr-tb;fill:#000000;fill-opacity:1;fill-rule:nonzero;stroke:none"
         transform="matrix(1,0,0,-1,236.081,-269.087)"><tspan
           id="tspan282"
           y="0"
           x="0 3.9976649 10.672445 16.002665">then</tspan></text>
<text
         id="text288"
         style="font-variant:normal;font-weight:normal;font-size:7.5px;font-family:TimesNewRomanPSMT;-inkscape-font-specification:TimesNewRomanPSMT;writing-mode:lr-tb;fill:#000000;fill-opacity:1;fill-rule:nonzero;stroke:none"
         transform="matrix(1,0,0,-1,7.438,-288.953)"><tspan
           id="tspan286"
           y="0"
           x="0 3.75">7:</tspan></text>
<text
         id="text292"
         style="font-variant:normal;font-weight:normal;font-size:12.00500011px;font-family:SimSun;-inkscape-font-specification:SimSun;writing-mode:lr-tb;fill:#000000;fill-opacity:1;fill-rule:nonzero;stroke:none"
         transform="matrix(1,0,0,-1,40.275,-288.953)"><tspan
           id="tspan290"
           y="0"
           x="0 12.005 24.01 36.014999">检验此时</tspan></text>
<text
         id="text296"
         style="font-style:italic;font-variant:normal;font-weight:normal;font-size:12.00500011px;font-family:CMSY10;-inkscape-font-specification:CMSY10;writing-mode:lr-tb;fill:#000000;fill-opacity:1;fill-rule:nonzero;stroke:none"
         transform="matrix(1,0,0,-1,91.296,-288.953)"><tspan
           id="tspan294"
           y="0"
           x="0">|</tspan></text>
<text
         id="text300"
         style="font-style:italic;font-variant:normal;font-weight:normal;font-size:12.00500011px;font-family:CMMI12;-inkscape-font-specification:CMMI12;writing-mode:lr-tb;fill:#000000;fill-opacity:1;fill-rule:nonzero;stroke:none"
         transform="matrix(1,0,0,-1,94.63,-288.953)"><tspan
           id="tspan298"
           y="0"
           x="0">t</tspan></text>
<text
         id="text304"
         style="font-style:italic;font-variant:normal;font-weight:normal;font-size:12.00500011px;font-family:CMSY10;-inkscape-font-specification:CMSY10;writing-mode:lr-tb;fill:#000000;fill-opacity:1;fill-rule:nonzero;stroke:none"
         transform="matrix(1,0,0,-1,98.875,-288.953)"><tspan
           id="tspan302"
           y="0"
           x="0">|</tspan></text>
<text
         id="text308"
         style="font-variant:normal;font-weight:normal;font-size:12.00500011px;font-family:SimSun;-inkscape-font-specification:SimSun;writing-mode:lr-tb;fill:#000000;fill-opacity:1;fill-rule:nonzero;stroke:none"
         transform="matrix(1,0,0,-1,105.211,-288.953)"><tspan
           id="tspan306"
           y="0"
           x="0 12.005 24.01 36.014999">是否最小</tspan></text>
<text
         id="text312"
         style="font-variant:normal;font-weight:normal;font-size:7.5px;font-family:TimesNewRomanPSMT;-inkscape-font-specification:TimesNewRomanPSMT;writing-mode:lr-tb;fill:#000000;fill-opacity:1;fill-rule:nonzero;stroke:none"
         transform="matrix(1,0,0,-1,7.438,-308.82)"><tspan
           id="tspan310"
           y="0"
           x="0 3.75">8:</tspan></text>
<text
         id="text316"
         style="font-variant:normal;font-weight:normal;font-size:12.00500011px;font-family:SimSun;-inkscape-font-specification:SimSun;writing-mode:lr-tb;fill:#000000;fill-opacity:1;fill-rule:nonzero;stroke:none"
         transform="matrix(1,0,0,-1,40.275,-308.82)"><tspan
           id="tspan314"
           y="0"
           x="0 12.005 24.01 36.014999 48.02 60.025002 72.029999 84.035004 96.040001">保留最小的移动距离</tspan></text>
<text
         id="text320"
         style="font-style:italic;font-variant:normal;font-weight:normal;font-size:12.00500011px;font-family:CMMI12;-inkscape-font-specification:CMMI12;writing-mode:lr-tb;fill:#000000;fill-opacity:1;fill-rule:nonzero;stroke:none"
         transform="matrix(1,0,0,-1,151.321,-308.82)"><tspan
           id="tspan318"
           y="0"
           x="0">t</tspan></text>
<text
         id="text324"
         style="font-variant:normal;font-weight:normal;font-size:12.00500011px;font-family:SimSun;-inkscape-font-specification:SimSun;writing-mode:lr-tb;fill:#000000;fill-opacity:1;fill-rule:nonzero;stroke:none"
         transform="matrix(1,0,0,-1,158.567,-308.82)"><tspan
           id="tspan322"
           y="0"
           x="0 12.005 24.01 36.014999 48.02 60.025002 72.029999 84.035004 96.040001 108.045">以及此时移动后的坐标</tspan></text>
<text
         id="text328"
         style="font-variant:normal;font-weight:normal;font-size:7.5px;font-family:TimesNewRomanPSMT;-inkscape-font-specification:TimesNewRomanPSMT;writing-mode:lr-tb;fill:#000000;fill-opacity:1;fill-rule:nonzero;stroke:none"
         transform="matrix(1,0,0,-1,7.438,-328.686)"><tspan
           id="tspan326"
           y="0"
           x="0 3.75">9:</tspan></text>
<text
         id="text332"
         style="font-variant:normal;font-weight:bold;font-size:12.00500011px;font-family:TimesNewRomanPS;-inkscape-font-specification:TimesNewRomanPS-BoldMT;writing-mode:lr-tb;fill:#000000;fill-opacity:1;fill-rule:nonzero;stroke:none"
         transform="matrix(1,0,0,-1,29.775,-328.686)"><tspan
           id="tspan330"
           y="0"
           x="0 5.3302202 12.005 21.669025 25.006414">endif</tspan></text>
<text
         id="text336"
         style="font-variant:normal;font-weight:normal;font-size:7.5px;font-family:TimesNewRomanPSMT;-inkscape-font-specification:TimesNewRomanPSMT;writing-mode:lr-tb;fill:#000000;fill-opacity:1;fill-rule:nonzero;stroke:none"
         transform="matrix(1,0,0,-1,3.688,-348.553)"><tspan
           id="tspan334"
           y="0"
           x="0 3.75 7.5">10:</tspan></text>
<text
         id="text340"
         style="font-variant:normal;font-weight:bold;font-size:12.00500011px;font-family:TimesNewRomanPS;-inkscape-font-specification:TimesNewRomanPS-BoldMT;writing-mode:lr-tb;fill:#000000;fill-opacity:1;fill-rule:nonzero;stroke:none"
         transform="matrix(1,0,0,-1,19.275,-348.553)"><tspan
           id="tspan338"
           y="0"
           x="0 5.3302202 12.005 21.669025 25.666691 31.669189">endfor</tspan></text>
<text
         id="text344"
         style="font-variant:normal;font-weight:normal;font-size:12.00500011px;font-family:TimesNewRomanPSMT;-inkscape-font-specification:TimesNewRomanPSMT;writing-mode:lr-tb;fill:#000000;fill-opacity:1;fill-rule:nonzero;stroke:none"
         transform="matrix(1,0,0,-1,222.637,-728.912)"><tspan
           id="tspan342"
           y="0"
           x="0">1</tspan></text>
</g></g></svg>