<?xml version="1.0" encoding="UTF-8" standalone="no"?>
<svg
   xmlns:dc="http://purl.org/dc/elements/1.1/"
   xmlns:cc="http://creativecommons.org/ns#"
   xmlns:rdf="http://www.w3.org/1999/02/22-rdf-syntax-ns#"
   xmlns:svg="http://www.w3.org/2000/svg"
   xmlns="http://www.w3.org/2000/svg"
   viewBox="0 0 469.26401 547.24268"
   height="547.24268"
   width="469.26401"
   xml:space="preserve"
   id="svg2"
   version="1.1"><metadata
     id="metadata8"><rdf:RDF><cc:Work
         rdf:about=""><dc:format>image/svg+xml</dc:format><dc:type
           rdf:resource="http://purl.org/dc/dcmitype/StillImage" /></cc:Work></rdf:RDF></metadata><defs
     id="defs6"><clipPath
       id="clipPath14"
       clipPathUnits="userSpaceOnUse"><path
         id="path12"
         d="M 0,0 H 595.28 V 841.89 H 0 Z" /></clipPath></defs><g
     clip-path="url(#clipPath14)"
     transform="matrix(1.3333333,0,0,-1.3333333,-77.978667,1048.0227)"
     id="g10"><g
       transform="translate(72,769.89)"
       id="g16"><text
         id="text20"
         style="font-variant:normal;font-weight:bold;font-size:12.00500011px;font-family:TimesNewRomanPS;-inkscape-font-specification:TimesNewRomanPS-BoldMT;writing-mode:lr-tb;fill:#000000;fill-opacity:1;fill-rule:nonzero;stroke:none"
         transform="matrix(1,0,0,-1,1.867,-10.821)"><tspan
           id="tspan18"
           y="0"
           x="0 4.6699448 11.344725 18.019505 24.694284">Input</tspan></text>
<text
         id="text24"
         style="font-variant:normal;font-weight:normal;font-size:12.00500011px;font-family:SimHei;-inkscape-font-specification:SimHei;writing-mode:lr-tb;fill:#000000;fill-opacity:1;fill-rule:nonzero;stroke:none"
         transform="matrix(1,0,0,-1,30.567,-10.821)"><tspan
           id="tspan22"
           y="0"
           x="0">：</tspan></text>
<text
         id="text28"
         style="font-style:italic;font-variant:normal;font-weight:normal;font-size:12.00500011px;font-family:CMMI12;-inkscape-font-specification:CMMI12;writing-mode:lr-tb;fill:#000000;fill-opacity:1;fill-rule:nonzero;stroke:none"
         transform="matrix(1,0,0,-1,48.574,-10.821)"><tspan
           id="tspan26"
           y="0"
           x="0">V</tspan></text>
<text
         id="text32"
         style="font-style:italic;font-variant:normal;font-weight:normal;font-size:8.40340042px;font-family:CMMI8;-inkscape-font-specification:CMMI8;writing-mode:lr-tb;fill:#000000;fill-opacity:1;fill-rule:nonzero;stroke:none"
         transform="matrix(1,0,0,-1,55.427,-12.622)"><tspan
           id="tspan30"
           y="0"
           x="0 3.0336275">in</tspan></text>
<text
         id="text36"
         style="font-variant:normal;font-weight:normal;font-size:12.00500011px;font-family:SimSun;-inkscape-font-specification:SimSun;writing-mode:lr-tb;fill:#000000;fill-opacity:1;fill-rule:nonzero;stroke:none"
         transform="matrix(1,0,0,-1,64.383,-10.821)"><tspan
           id="tspan34"
           y="0"
           x="0 12.005 24.01 36.014999 48.02 60.025002 72.029999 84.035004 96.040001 108.045 120.05 132.05499 144.06 156.065 168.07001 180.075">：工作区域内所有主索节点坐标集合</tspan></text>
<text
         id="text40"
         style="font-style:italic;font-variant:normal;font-weight:normal;font-size:12.00500011px;font-family:CMMI12;-inkscape-font-specification:CMMI12;writing-mode:lr-tb;fill:#000000;fill-opacity:1;fill-rule:nonzero;stroke:none"
         transform="matrix(1,0,0,-1,19.275,-30.688)"><tspan
           id="tspan38"
           y="0"
           x="0 10.27628 16.44685 20.684614 26.302956 30.312626">matrix</tspan></text>
<text
         id="text44"
         style="font-variant:normal;font-weight:normal;font-size:12.00500011px;font-family:TimesNewRomanPSMT;-inkscape-font-specification:TimesNewRomanPSMT;writing-mode:lr-tb;fill:#000000;fill-opacity:1;fill-rule:nonzero;stroke:none"
         transform="matrix(1,0,0,-1,56.286,-30.688)"><tspan
           id="tspan42"
           y="0"
           x="0">_</tspan></text>
<text
         id="text48"
         style="font-style:italic;font-variant:normal;font-weight:normal;font-size:12.00500011px;font-family:CMMI12;-inkscape-font-specification:CMMI12;writing-mode:lr-tb;fill:#000000;fill-opacity:1;fill-rule:nonzero;stroke:none"
         transform="matrix(1,0,0,-1,62.288,-30.688)"><tspan
           id="tspan46"
           y="0"
           x="0 4.9940801 10.63643 16.806999 22.425341">board</tspan></text>
<text
         id="text52"
         style="font-variant:normal;font-weight:normal;font-size:12.00500011px;font-family:SimSun;-inkscape-font-specification:SimSun;writing-mode:lr-tb;fill:#000000;fill-opacity:1;fill-rule:nonzero;stroke:none"
         transform="matrix(1,0,0,-1,90.839,-30.688)"><tspan
           id="tspan50"
           y="0"
           x="0 12.005 24.01 36.014999 48.02 60.025002 72.029999 84.035004 96.040001">：反射面板顶点矩阵</tspan></text>
<text
         id="text56"
         style="font-variant:normal;font-weight:bold;font-size:12.00500011px;font-family:TimesNewRomanPS;-inkscape-font-specification:TimesNewRomanPS-BoldMT;writing-mode:lr-tb;fill:#000000;fill-opacity:1;fill-rule:nonzero;stroke:none"
         transform="matrix(1,0,0,-1,1.867,-50.554)"><tspan
           id="tspan54"
           y="0"
           x="0 9.3398895 16.014669 20.012335 26.687115 33.361897">Output</tspan></text>
<text
         id="text60"
         style="font-variant:normal;font-weight:normal;font-size:12.00500011px;font-family:SimHei;-inkscape-font-specification:SimHei;writing-mode:lr-tb;fill:#000000;fill-opacity:1;fill-rule:nonzero;stroke:none"
         transform="matrix(1,0,0,-1,39.231,-50.554)"><tspan
           id="tspan58"
           y="0"
           x="0">：</tspan></text>
<text
         id="text64"
         style="font-style:italic;font-variant:normal;font-weight:normal;font-size:12.00500011px;font-family:CMMI12;-inkscape-font-specification:CMMI12;writing-mode:lr-tb;fill:#000000;fill-opacity:1;fill-rule:nonzero;stroke:none"
         transform="matrix(1,0,0,-1,57.238,-50.554)"><tspan
           id="tspan62"
           y="0"
           x="0 6.1705699 9.9161301 15.810585 22.569401">alpha</tspan></text>
<text
         id="text68"
         style="font-variant:normal;font-weight:normal;font-size:12.00500011px;font-family:SimSun;-inkscape-font-specification:SimSun;writing-mode:lr-tb;fill:#000000;fill-opacity:1;fill-rule:nonzero;stroke:none"
         transform="matrix(1,0,0,-1,86.011,-50.554)"><tspan
           id="tspan66"
           y="0"
           x="0 12.005 24.01 36.014999">：接收比</tspan></text>
<text
         id="text72"
         style="font-variant:normal;font-weight:normal;font-size:7.5px;font-family:TimesNewRomanPSMT;-inkscape-font-specification:TimesNewRomanPSMT;writing-mode:lr-tb;fill:#000000;fill-opacity:1;fill-rule:nonzero;stroke:none"
         transform="matrix(1,0,0,-1,7.438,-70.421)"><tspan
           id="tspan70"
           y="0"
           x="0 3.75">1:</tspan></text>
<text
         id="text76"
         style="font-variant:normal;font-weight:bold;font-size:12.00500011px;font-family:TimesNewRomanPS;-inkscape-font-specification:TimesNewRomanPS-BoldMT;writing-mode:lr-tb;fill:#000000;fill-opacity:1;fill-rule:nonzero;stroke:none"
         transform="matrix(1,0,0,-1,19.275,-70.421)"><tspan
           id="tspan74"
           y="0"
           x="0 3.9976649 10.000165">for</tspan></text>
<text
         id="text80"
         style="font-variant:normal;font-weight:normal;font-size:12.00500011px;font-family:TimesNewRomanPSMT;-inkscape-font-specification:TimesNewRomanPSMT;writing-mode:lr-tb;fill:#000000;fill-opacity:1;fill-rule:nonzero;stroke:none"
         transform="matrix(1,0,0,-1,37.604,-70.421)"><tspan
           id="tspan78"
           y="0"
           x="0 3.3373899 10.10821 19.111959 22.44935 31.4531 37.455601 42.78582">i=1to1e5</tspan></text>
<text
         id="text84"
         style="font-variant:normal;font-weight:bold;font-size:12.00500011px;font-family:TimesNewRomanPS;-inkscape-font-specification:TimesNewRomanPS-BoldMT;writing-mode:lr-tb;fill:#000000;fill-opacity:1;fill-rule:nonzero;stroke:none"
         transform="matrix(1,0,0,-1,89.388,-70.421)"><tspan
           id="tspan82"
           y="0"
           x="0 6.6747799">do</tspan></text>
<text
         id="text88"
         style="font-variant:normal;font-weight:normal;font-size:7.5px;font-family:TimesNewRomanPSMT;-inkscape-font-specification:TimesNewRomanPSMT;writing-mode:lr-tb;fill:#000000;fill-opacity:1;fill-rule:nonzero;stroke:none"
         transform="matrix(1,0,0,-1,7.438,-90.288)"><tspan
           id="tspan86"
           y="0"
           x="0 3.75">2:</tspan></text>
<text
         id="text92"
         style="font-variant:normal;font-weight:normal;font-size:12.00500011px;font-family:SimSun;-inkscape-font-specification:SimSun;writing-mode:lr-tb;fill:#000000;fill-opacity:1;fill-rule:nonzero;stroke:none"
         transform="matrix(1,0,0,-1,29.775,-90.288)"><tspan
           id="tspan90"
           y="0"
           x="0 12.005 24.01 36.014999 48.02 60.025002 72.029999 84.035004 96.040001 108.045 120.05 132.05499 144.06 156.065 168.07001 180.075 192.08 204.08501 216.09">以三角形最长边为边长作正方形覆盖三角形</tspan></text>
<text
         id="text96"
         style="font-variant:normal;font-weight:normal;font-size:7.5px;font-family:TimesNewRomanPSMT;-inkscape-font-specification:TimesNewRomanPSMT;writing-mode:lr-tb;fill:#000000;fill-opacity:1;fill-rule:nonzero;stroke:none"
         transform="matrix(1,0,0,-1,7.438,-110.154)"><tspan
           id="tspan94"
           y="0"
           x="0 3.75">3:</tspan></text>
<text
         id="text100"
         style="font-variant:normal;font-weight:normal;font-size:12.00500011px;font-family:SimSun;-inkscape-font-specification:SimSun;writing-mode:lr-tb;fill:#000000;fill-opacity:1;fill-rule:nonzero;stroke:none"
         transform="matrix(1,0,0,-1,29.775,-110.154)"><tspan
           id="tspan98"
           y="0"
           x="0 12.005">利用</tspan></text>
<text
         id="text104"
         style="font-variant:normal;font-weight:normal;font-size:12.00500011px;font-family:CMR12;-inkscape-font-specification:CMR12;writing-mode:lr-tb;fill:#000000;fill-opacity:1;fill-rule:nonzero;stroke:none"
         transform="matrix(1,0,0,-1,56.786,-110.154)"><tspan
           id="tspan102"
           y="0"
           x="0 3.253355">[0</tspan></text>
<text
         id="text108"
         style="font-style:italic;font-variant:normal;font-weight:normal;font-size:12.00500011px;font-family:CMMI12;-inkscape-font-specification:CMMI12;writing-mode:lr-tb;fill:#000000;fill-opacity:1;fill-rule:nonzero;stroke:none"
         transform="matrix(1,0,0,-1,65.928,-110.154)"><tspan
           id="tspan106"
           y="0"
           x="0">,</tspan></text>
<text
         id="text112"
         style="font-variant:normal;font-weight:normal;font-size:12.00500011px;font-family:CMR12;-inkscape-font-specification:CMR12;writing-mode:lr-tb;fill:#000000;fill-opacity:1;fill-rule:nonzero;stroke:none"
         transform="matrix(1,0,0,-1,71.194,-110.154)"><tspan
           id="tspan110"
           y="0"
           x="0 5.8704448">1]</tspan></text>
<text
         id="text116"
         style="font-variant:normal;font-weight:normal;font-size:12.00500011px;font-family:SimSun;-inkscape-font-specification:SimSun;writing-mode:lr-tb;fill:#000000;fill-opacity:1;fill-rule:nonzero;stroke:none"
         transform="matrix(1,0,0,-1,83.338,-110.154)"><tspan
           id="tspan114"
           y="0"
           x="0 12.005 24.01 36.014999 48.02 60.025002 72.029999 84.035004 96.040001 108.045 120.05 132.05499 144.06 156.065 168.07001">的随机数在正方形均匀产生随机点</tspan></text>
<text
         id="text120"
         style="font-variant:normal;font-weight:normal;font-size:7.5px;font-family:TimesNewRomanPSMT;-inkscape-font-specification:TimesNewRomanPSMT;writing-mode:lr-tb;fill:#000000;fill-opacity:1;fill-rule:nonzero;stroke:none"
         transform="matrix(1,0,0,-1,7.438,-130.021)"><tspan
           id="tspan118"
           y="0"
           x="0 3.75">4:</tspan></text>
<text
         id="text124"
         style="font-variant:normal;font-weight:normal;font-size:12.00500011px;font-family:SimSun;-inkscape-font-specification:SimSun;writing-mode:lr-tb;fill:#000000;fill-opacity:1;fill-rule:nonzero;stroke:none"
         transform="matrix(1,0,0,-1,29.775,-130.021)"><tspan
           id="tspan122"
           y="0"
           x="0 12.005 24.01 36.014999 48.02 60.025002 72.029999 84.035004 96.040001 108.045">选取三角形内的随机点</tspan></text>
<text
         id="text128"
         style="font-variant:normal;font-weight:normal;font-size:7.5px;font-family:TimesNewRomanPSMT;-inkscape-font-specification:TimesNewRomanPSMT;writing-mode:lr-tb;fill:#000000;fill-opacity:1;fill-rule:nonzero;stroke:none"
         transform="matrix(1,0,0,-1,7.438,-149.887)"><tspan
           id="tspan126"
           y="0"
           x="0 3.75">5:</tspan></text>
<text
         id="text132"
         style="font-variant:normal;font-weight:normal;font-size:12.00500011px;font-family:SimSun;-inkscape-font-specification:SimSun;writing-mode:lr-tb;fill:#000000;fill-opacity:1;fill-rule:nonzero;stroke:none"
         transform="matrix(1,0,0,-1,29.775,-149.887)"><tspan
           id="tspan130"
           y="0"
           x="0 12.005 24.01 36.014999 48.02 60.025002 72.029999 84.035004 96.040001 108.045 120.05 132.05499 144.06 156.065 168.07001 180.075">通过平行线定理得到入射光方向向量</tspan></text>
<text
         id="text136"
         style="font-variant:normal;font-weight:normal;font-size:7.5px;font-family:TimesNewRomanPSMT;-inkscape-font-specification:TimesNewRomanPSMT;writing-mode:lr-tb;fill:#000000;fill-opacity:1;fill-rule:nonzero;stroke:none"
         transform="matrix(1,0,0,-1,7.438,-169.754)"><tspan
           id="tspan134"
           y="0"
           x="0 3.75">6:</tspan></text>
<text
         id="text140"
         style="font-variant:normal;font-weight:normal;font-size:12.00500011px;font-family:SimSun;-inkscape-font-specification:SimSun;writing-mode:lr-tb;fill:#000000;fill-opacity:1;fill-rule:nonzero;stroke:none"
         transform="matrix(1,0,0,-1,29.775,-169.754)"><tspan
           id="tspan138"
           y="0"
           x="0 12.005 24.01 36.014999 48.02 60.025002 72.029999 84.035004 96.040001 108.045 120.05 132.05499 144.06 156.065 168.07001 180.075 192.08 204.08501 216.09 228.095 240.10001 252.105 264.10999 276.11499">利用法向量与入射光方向向量的点积得到入射角余弦值</tspan></text>
<text
         id="text144"
         style="font-variant:normal;font-weight:normal;font-size:7.5px;font-family:TimesNewRomanPSMT;-inkscape-font-specification:TimesNewRomanPSMT;writing-mode:lr-tb;fill:#000000;fill-opacity:1;fill-rule:nonzero;stroke:none"
         transform="matrix(1,0,0,-1,7.438,-189.62)"><tspan
           id="tspan142"
           y="0"
           x="0 3.75">7:</tspan></text>
<text
         id="text148"
         style="font-variant:normal;font-weight:normal;font-size:12.00500011px;font-family:SimSun;-inkscape-font-specification:SimSun;writing-mode:lr-tb;fill:#000000;fill-opacity:1;fill-rule:nonzero;stroke:none"
         transform="matrix(1,0,0,-1,29.775,-189.62)"><tspan
           id="tspan146"
           y="0"
           x="0 12.005 24.01 36.014999 48.02 60.025002 72.029999 84.035004 96.040001 108.045 120.05 132.05499 144.06 156.065 168.07001 180.075 192.08 204.08501">通过平行四边形准则得到反射光方向向量</tspan></text>
<text
         id="text152"
         style="font-variant:normal;font-weight:normal;font-size:12.00500011px;font-family:TimesNewRomanPSMT;-inkscape-font-specification:TimesNewRomanPSMT;writing-mode:lr-tb;fill:#000000;fill-opacity:1;fill-rule:nonzero;stroke:none"
         transform="matrix(1,0,0,-1,29.775,-209.487)"><tspan
           id="tspan150"
           y="0"
           x="0 3.3373899">//</tspan></text>
<text
         id="text156"
         style="font-variant:normal;font-weight:normal;font-size:12.00500011px;font-family:SimSun;-inkscape-font-specification:SimSun;writing-mode:lr-tb;fill:#000000;fill-opacity:1;fill-rule:nonzero;stroke:none"
         transform="matrix(1,0,0,-1,36.445,-209.487)"><tspan
           id="tspan154"
           y="0"
           x="0 12.005 24.01 36.014999 48.02 60.025002 72.029999 84.035004 96.040001">检验反射光是否接收</tspan></text>
<text
         id="text160"
         style="font-variant:normal;font-weight:normal;font-size:7.5px;font-family:TimesNewRomanPSMT;-inkscape-font-specification:TimesNewRomanPSMT;writing-mode:lr-tb;fill:#000000;fill-opacity:1;fill-rule:nonzero;stroke:none"
         transform="matrix(1,0,0,-1,7.438,-229.353)"><tspan
           id="tspan158"
           y="0"
           x="0 3.75">8:</tspan></text>
<text
         id="text164"
         style="font-variant:normal;font-weight:normal;font-size:12.00500011px;font-family:SimSun;-inkscape-font-specification:SimSun;writing-mode:lr-tb;fill:#000000;fill-opacity:1;fill-rule:nonzero;stroke:none"
         transform="matrix(1,0,0,-1,29.775,-229.353)"><tspan
           id="tspan162"
           y="0"
           x="0 12.005 24.01 36.014999 48.02 60.025002 72.029999 84.035004">计算此时馈源仓点</tspan></text>
<text
         id="text168"
         style="font-variant:normal;font-weight:normal;font-size:12.00500011px;font-family:TimesNewRomanPSMT;-inkscape-font-specification:TimesNewRomanPSMT;writing-mode:lr-tb;fill:#000000;fill-opacity:1;fill-rule:nonzero;stroke:none"
         transform="matrix(1,0,0,-1,128.816,-229.353)"><tspan
           id="tspan166"
           y="0"
           x="0">P</tspan></text>
<text
         id="text172"
         style="font-variant:normal;font-weight:normal;font-size:12.00500011px;font-family:SimSun;-inkscape-font-specification:SimSun;writing-mode:lr-tb;fill:#000000;fill-opacity:1;fill-rule:nonzero;stroke:none"
         transform="matrix(1,0,0,-1,138.494,-229.353)"><tspan
           id="tspan170"
           y="0"
           x="0 12.005 24.01 36.014999 48.02 60.025002 72.029999 84.035004 96.040001 108.045 120.05 132.05499 144.06 156.065">与随机点在反射光方向上的距离</tspan></text>
<text
         id="text176"
         style="font-variant:normal;font-weight:normal;font-size:7.5px;font-family:TimesNewRomanPSMT;-inkscape-font-specification:TimesNewRomanPSMT;writing-mode:lr-tb;fill:#000000;fill-opacity:1;fill-rule:nonzero;stroke:none"
         transform="matrix(1,0,0,-1,7.438,-249.22)"><tspan
           id="tspan174"
           y="0"
           x="0 3.75">9:</tspan></text>
<text
         id="text180"
         style="font-variant:normal;font-weight:normal;font-size:12.00500011px;font-family:SimSun;-inkscape-font-specification:SimSun;writing-mode:lr-tb;fill:#000000;fill-opacity:1;fill-rule:nonzero;stroke:none"
         transform="matrix(1,0,0,-1,29.775,-249.22)"><tspan
           id="tspan178"
           y="0"
           x="0 12.005 24.01 36.014999 48.02 60.025002 72.029999 84.035004 96.040001 108.045">利用公式得到反射光在</tspan></text>
<text
         id="text184"
         style="font-variant:normal;font-weight:normal;font-size:12.00500011px;font-family:TimesNewRomanPSMT;-inkscape-font-specification:TimesNewRomanPSMT;writing-mode:lr-tb;fill:#000000;fill-opacity:1;fill-rule:nonzero;stroke:none"
         transform="matrix(1,0,0,-1,152.826,-249.22)"><tspan
           id="tspan182"
           y="0"
           x="0">P</tspan></text>
<text
         id="text188"
         style="font-variant:normal;font-weight:normal;font-size:12.00500011px;font-family:SimSun;-inkscape-font-specification:SimSun;writing-mode:lr-tb;fill:#000000;fill-opacity:1;fill-rule:nonzero;stroke:none"
         transform="matrix(1,0,0,-1,162.504,-249.22)"><tspan
           id="tspan186"
           y="0"
           x="0 12.005 24.01">附近的</tspan></text>
<text
         id="text192"
         style="font-variant:normal;font-weight:normal;font-size:12.00500011px;font-family:TimesNewRomanPSMT;-inkscape-font-specification:TimesNewRomanPSMT;writing-mode:lr-tb;fill:#000000;fill-opacity:1;fill-rule:nonzero;stroke:none"
         transform="matrix(1,0,0,-1,201.52,-249.22)"><tspan
           id="tspan190"
           y="0"
           x="0">x</tspan></text>
<text
         id="text196"
         style="font-variant:normal;font-weight:normal;font-size:12.00500011px;font-family:SimSun;-inkscape-font-specification:SimSun;writing-mode:lr-tb;fill:#000000;fill-opacity:1;fill-rule:nonzero;stroke:none"
         transform="matrix(1,0,0,-1,207.522,-249.22)"><tspan
           id="tspan194"
           y="0"
           x="0">，</tspan></text>
<text
         id="text200"
         style="font-variant:normal;font-weight:normal;font-size:12.00500011px;font-family:TimesNewRomanPSMT;-inkscape-font-specification:TimesNewRomanPSMT;writing-mode:lr-tb;fill:#000000;fill-opacity:1;fill-rule:nonzero;stroke:none"
         transform="matrix(1,0,0,-1,219.527,-249.22)"><tspan
           id="tspan198"
           y="0"
           x="0">y</tspan></text>
<text
         id="text204"
         style="font-variant:normal;font-weight:normal;font-size:12.00500011px;font-family:SimSun;-inkscape-font-specification:SimSun;writing-mode:lr-tb;fill:#000000;fill-opacity:1;fill-rule:nonzero;stroke:none"
         transform="matrix(1,0,0,-1,228.531,-249.22)"><tspan
           id="tspan202"
           y="0"
           x="0 12.005">坐标</tspan></text>
<text
         id="text208"
         style="font-variant:normal;font-weight:normal;font-size:7.5px;font-family:TimesNewRomanPSMT;-inkscape-font-specification:TimesNewRomanPSMT;writing-mode:lr-tb;fill:#000000;fill-opacity:1;fill-rule:nonzero;stroke:none"
         transform="matrix(1,0,0,-1,3.688,-269.087)"><tspan
           id="tspan206"
           y="0"
           x="0 3.75 7.5">10:</tspan></text>
<text
         id="text212"
         style="font-variant:normal;font-weight:bold;font-size:12.00500011px;font-family:TimesNewRomanPS;-inkscape-font-specification:TimesNewRomanPS-BoldMT;writing-mode:lr-tb;fill:#000000;fill-opacity:1;fill-rule:nonzero;stroke:none"
         transform="matrix(1,0,0,-1,29.775,-269.087)"><tspan
           id="tspan210"
           y="0"
           x="0 3.3373899">if</tspan></text>
<text
         id="text216"
         style="font-style:italic;font-variant:normal;font-weight:normal;font-size:12.00500011px;font-family:CMMI12;-inkscape-font-specification:CMMI12;writing-mode:lr-tb;fill:#000000;fill-opacity:1;fill-rule:nonzero;stroke:none"
         transform="matrix(1,0,0,-1,41,-269.087)"><tspan
           id="tspan214"
           y="0"
           x="0">x</tspan></text>
<text
         id="text220"
         style="font-variant:normal;font-weight:normal;font-size:8.40340042px;font-family:CMR8;-inkscape-font-specification:CMR8;writing-mode:lr-tb;fill:#000000;fill-opacity:1;fill-rule:nonzero;stroke:none"
         transform="matrix(1,0,0,-1,47.68,-264.73)"><tspan
           id="tspan218"
           y="0"
           x="0">2</tspan></text>
<text
         id="text224"
         style="font-variant:normal;font-weight:normal;font-size:12.00500011px;font-family:CMR12;-inkscape-font-specification:CMR12;writing-mode:lr-tb;fill:#000000;fill-opacity:1;fill-rule:nonzero;stroke:none"
         transform="matrix(1,0,0,-1,55.31,-269.087)"><tspan
           id="tspan222"
           y="0"
           x="0">+</tspan></text>
<text
         id="text228"
         style="font-style:italic;font-variant:normal;font-weight:normal;font-size:12.00500011px;font-family:CMMI12;-inkscape-font-specification:CMMI12;writing-mode:lr-tb;fill:#000000;fill-opacity:1;fill-rule:nonzero;stroke:none"
         transform="matrix(1,0,0,-1,67.12,-269.087)"><tspan
           id="tspan226"
           y="0"
           x="0">y</tspan></text>
<text
         id="text232"
         style="font-variant:normal;font-weight:normal;font-size:8.40340042px;font-family:CMR8;-inkscape-font-specification:CMR8;writing-mode:lr-tb;fill:#000000;fill-opacity:1;fill-rule:nonzero;stroke:none"
         transform="matrix(1,0,0,-1,73.282,-264.73)"><tspan
           id="tspan230"
           y="0"
           x="0">2</tspan></text>
<text
         id="text236"
         style="font-style:italic;font-variant:normal;font-weight:normal;font-size:12.00500011px;font-family:CMSY10;-inkscape-font-specification:CMSY10;writing-mode:lr-tb;fill:#000000;fill-opacity:1;fill-rule:nonzero;stroke:none"
         transform="matrix(1,0,0,-1,81.58,-269.087)"><tspan
           id="tspan234"
           y="0"
           x="0">≤</tspan></text>
<text
         id="text240"
         style="font-variant:normal;font-weight:normal;font-size:12.00500011px;font-family:CMR12;-inkscape-font-specification:CMR12;writing-mode:lr-tb;fill:#000000;fill-opacity:1;fill-rule:nonzero;stroke:none"
         transform="matrix(1,0,0,-1,94.252,-269.087)"><tspan
           id="tspan238"
           y="0"
           x="0">0</tspan></text>
<text
         id="text244"
         style="font-style:italic;font-variant:normal;font-weight:normal;font-size:12.00500011px;font-family:CMMI12;-inkscape-font-specification:CMMI12;writing-mode:lr-tb;fill:#000000;fill-opacity:1;fill-rule:nonzero;stroke:none"
         transform="matrix(1,0,0,-1,100.129,-269.087)"><tspan
           id="tspan242"
           y="0"
           x="0">.</tspan></text>
<text
         id="text248"
         style="font-variant:normal;font-weight:normal;font-size:12.00500011px;font-family:CMR12;-inkscape-font-specification:CMR12;writing-mode:lr-tb;fill:#000000;fill-opacity:1;fill-rule:nonzero;stroke:none"
         transform="matrix(1,0,0,-1,103.394,-269.087)"><tspan
           id="tspan246"
           y="0"
           x="0 5.8704448">25</tspan></text>
<text
         id="text252"
         style="font-variant:normal;font-weight:bold;font-size:12.00500011px;font-family:TimesNewRomanPS;-inkscape-font-specification:TimesNewRomanPS-BoldMT;writing-mode:lr-tb;fill:#000000;fill-opacity:1;fill-rule:nonzero;stroke:none"
         transform="matrix(1,0,0,-1,118.15,-269.087)"><tspan
           id="tspan250"
           y="0"
           x="0 3.9976649 10.672445 16.002665">then</tspan></text>
<text
         id="text256"
         style="font-variant:normal;font-weight:normal;font-size:7.5px;font-family:TimesNewRomanPSMT;-inkscape-font-specification:TimesNewRomanPSMT;writing-mode:lr-tb;fill:#000000;fill-opacity:1;fill-rule:nonzero;stroke:none"
         transform="matrix(1,0,0,-1,3.967,-288.953)"><tspan
           id="tspan254"
           y="0"
           x="0 3.4725001 7.2224998">11:</tspan></text>
<text
         id="text260"
         style="font-variant:normal;font-weight:normal;font-size:12.00500011px;font-family:SimSun;-inkscape-font-specification:SimSun;writing-mode:lr-tb;fill:#000000;fill-opacity:1;fill-rule:nonzero;stroke:none"
         transform="matrix(1,0,0,-1,40.275,-288.953)"><tspan
           id="tspan258"
           y="0"
           x="0 12.005 24.01 36.014999 48.02 60.025002 72.029999 84.035004 96.040001 108.045 120.05">认为此时反射光能被接收</tspan></text>
<text
         id="text264"
         style="font-variant:normal;font-weight:normal;font-size:7.5px;font-family:TimesNewRomanPSMT;-inkscape-font-specification:TimesNewRomanPSMT;writing-mode:lr-tb;fill:#000000;fill-opacity:1;fill-rule:nonzero;stroke:none"
         transform="matrix(1,0,0,-1,3.688,-308.82)"><tspan
           id="tspan262"
           y="0"
           x="0 3.75 7.5">12:</tspan></text>
<text
         id="text268"
         style="font-variant:normal;font-weight:normal;font-size:12.00500011px;font-family:SimSun;-inkscape-font-specification:SimSun;writing-mode:lr-tb;fill:#000000;fill-opacity:1;fill-rule:nonzero;stroke:none"
         transform="matrix(1,0,0,-1,40.275,-308.82)"><tspan
           id="tspan266"
           y="0"
           x="0 12.005 24.01">计数值</tspan></text>
<text
         id="text272"
         style="font-variant:normal;font-weight:normal;font-size:12.00500011px;font-family:TimesNewRomanPSMT;-inkscape-font-specification:TimesNewRomanPSMT;writing-mode:lr-tb;fill:#000000;fill-opacity:1;fill-rule:nonzero;stroke:none"
         transform="matrix(1,0,0,-1,79.291,-308.82)"><tspan
           id="tspan270"
           y="0"
           x="0 5.3302202 8.6676102 14.67011 21.440929">ctn+1</tspan></text>
<text
         id="text276"
         style="font-variant:normal;font-weight:normal;font-size:7.5px;font-family:TimesNewRomanPSMT;-inkscape-font-specification:TimesNewRomanPSMT;writing-mode:lr-tb;fill:#000000;fill-opacity:1;fill-rule:nonzero;stroke:none"
         transform="matrix(1,0,0,-1,3.688,-328.686)"><tspan
           id="tspan274"
           y="0"
           x="0 3.75 7.5">13:</tspan></text>
<text
         id="text280"
         style="font-variant:normal;font-weight:bold;font-size:12.00500011px;font-family:TimesNewRomanPS;-inkscape-font-specification:TimesNewRomanPS-BoldMT;writing-mode:lr-tb;fill:#000000;fill-opacity:1;fill-rule:nonzero;stroke:none"
         transform="matrix(1,0,0,-1,29.775,-328.686)"><tspan
           id="tspan278"
           y="0"
           x="0 5.3302202 12.005 21.669025 25.006414">endif</tspan></text>
<text
         id="text284"
         style="font-variant:normal;font-weight:normal;font-size:7.5px;font-family:TimesNewRomanPSMT;-inkscape-font-specification:TimesNewRomanPSMT;writing-mode:lr-tb;fill:#000000;fill-opacity:1;fill-rule:nonzero;stroke:none"
         transform="matrix(1,0,0,-1,3.688,-348.553)"><tspan
           id="tspan282"
           y="0"
           x="0 3.75 7.5">14:</tspan></text>
<text
         id="text288"
         style="font-variant:normal;font-weight:bold;font-size:12.00500011px;font-family:TimesNewRomanPS;-inkscape-font-specification:TimesNewRomanPS-BoldMT;writing-mode:lr-tb;fill:#000000;fill-opacity:1;fill-rule:nonzero;stroke:none"
         transform="matrix(1,0,0,-1,19.275,-348.553)"><tspan
           id="tspan286"
           y="0"
           x="0 5.3302202 12.005 21.669025 25.666691 31.669189">endfor</tspan></text>
<text
         id="text292"
         style="font-variant:normal;font-weight:normal;font-size:12.00500011px;font-family:TimesNewRomanPSMT;-inkscape-font-specification:TimesNewRomanPSMT;writing-mode:lr-tb;fill:#000000;fill-opacity:1;fill-rule:nonzero;stroke:none"
         transform="matrix(1,0,0,-1,68.291,-348.553)"><tspan
           id="tspan290"
           y="0"
           x="0 3.3373899">//</tspan></text>
<text
         id="text296"
         style="font-variant:normal;font-weight:normal;font-size:12.00500011px;font-family:SimSun;-inkscape-font-specification:SimSun;writing-mode:lr-tb;fill:#000000;fill-opacity:1;fill-rule:nonzero;stroke:none"
         transform="matrix(1,0,0,-1,74.962,-348.553)"><tspan
           id="tspan294"
           y="0"
           x="0 12.005 24.01 36.014999 48.02 60.025002 72.029999 84.035004 96.040001 108.045 120.05 132.05499">对于每个三角面均随机模拟</tspan></text>
<text
         id="text300"
         style="font-variant:normal;font-weight:normal;font-size:12.00500011px;font-family:TimesNewRomanPSMT;-inkscape-font-specification:TimesNewRomanPSMT;writing-mode:lr-tb;fill:#000000;fill-opacity:1;fill-rule:nonzero;stroke:none"
         transform="matrix(1,0,0,-1,222.023,-348.553)"><tspan
           id="tspan298"
           y="0"
           x="0 6.0025001 11.33272">1e5</tspan></text>
<text
         id="text304"
         style="font-variant:normal;font-weight:normal;font-size:12.00500011px;font-family:SimSun;-inkscape-font-specification:SimSun;writing-mode:lr-tb;fill:#000000;fill-opacity:1;fill-rule:nonzero;stroke:none"
         transform="matrix(1,0,0,-1,242.357,-348.553)"><tspan
           id="tspan302"
           y="0"
           x="0">次</tspan></text>
<text
         id="text308"
         style="font-variant:normal;font-weight:bold;font-size:12.00500011px;font-family:TimesNewRomanPS;-inkscape-font-specification:TimesNewRomanPS-BoldMT;writing-mode:lr-tb;fill:#000000;fill-opacity:1;fill-rule:nonzero;stroke:none"
         transform="matrix(1,0,0,-1,-1.134,-370.82)"><tspan
           id="tspan306"
           y="0"
           x="0 5.3302202 12.005 21.68103 25.678696 31.681194">endfor</tspan></text>
<text
         id="text312"
         style="font-variant:normal;font-weight:normal;font-size:12.00500011px;font-family:TimesNewRomanPSMT;-inkscape-font-specification:TimesNewRomanPSMT;writing-mode:lr-tb;fill:#000000;fill-opacity:1;fill-rule:nonzero;stroke:none"
         transform="matrix(1,0,0,-1,47.883,-370.82)"><tspan
           id="tspan310"
           y="0"
           x="0 3.3373899">//</tspan></text>
<text
         id="text316"
         style="font-variant:normal;font-weight:normal;font-size:12.00500011px;font-family:SimSun;-inkscape-font-specification:SimSun;writing-mode:lr-tb;fill:#000000;fill-opacity:1;fill-rule:nonzero;stroke:none"
         transform="matrix(1,0,0,-1,54.553,-370.82)"><tspan
           id="tspan314"
           y="0"
           x="0 12.005 24.01 36.014999 48.02 60.025002 72.029999 84.035004 96.040001 108.045 120.05 132.05499">全部三角面均随机模拟完毕</tspan></text>
<text
         id="text320"
         style="font-variant:normal;font-weight:normal;font-size:12.00500011px;font-family:TimesNewRomanPSMT;-inkscape-font-specification:TimesNewRomanPSMT;writing-mode:lr-tb;fill:#000000;fill-opacity:1;fill-rule:nonzero;stroke:none"
         transform="matrix(1,0,0,-1,222.637,-728.912)"><tspan
           id="tspan318"
           y="0"
           x="0">1</tspan></text>
</g></g></svg>